<?xml version="1.0" standalone="no"?>
<!DOCTYPE svg PUBLIC "-//W3C//DTD SVG 20010904//EN"
 "http://www.w3.org/TR/2001/REC-SVG-20010904/DTD/svg10.dtd">
<svg version="1.0" xmlns="http://www.w3.org/2000/svg"
 width="657.000000pt" height="86.000000pt" viewBox="0 0 657.000000 86.000000"
 preserveAspectRatio="xMidYMid meet">

<g transform="translate(0.000000,86.000000) scale(0.100000,-0.100000)"
fill="#000000" stroke="none">
<path d="M0 430 l0 -430 3285 0 3285 0 0 430 0 430 -3285 0 -3285 0 0 -430z
m3857 333 c74 -36 150 -112 188 -188 26 -52 30 -71 30 -140 0 -101 -30 -170
-110 -254 -67 -71 -124 -98 -235 -112 -152 -19 -263 20 -364 126 -39 41 -64
101 -75 176 -26 189 64 342 234 398 80 27 106 30 197 25 59 -2 92 -10 135 -31z
m-3427 8 c106 -10 178 -42 253 -114 90 -87 124 -177 108 -290 -12 -84 -44
-149 -105 -212 -52 -53 -118 -83 -220 -100 -47 -8 -376 -9 -383 -1 -13 13 -22
189 -22 447 -1 152 1 278 3 280 7 7 267 -1 366 -10z m1990 12 c0 -5 -7 -21
-16 -38 -43 -80 -204 -407 -225 -455 -34 -82 -117 -218 -139 -230 -10 -5 -40
-10 -67 -10 l-48 1 -84 172 c-47 95 -104 219 -127 277 -23 58 -58 140 -78 184
-20 43 -36 83 -36 88 0 5 34 8 76 6 l75 -3 35 -80 c20 -44 57 -136 84 -205 52
-138 106 -250 119 -250 7 0 253 483 265 522 4 14 20 18 78 21 40 1 76 4 81 5
4 1 7 -1 7 -5z m2292 -17 c81 -33 158 -85 158 -106 0 -11 -10 -19 -28 -23 -15
-3 -45 -19 -66 -36 l-38 -30 -24 29 c-66 78 -247 76 -327 -4 -49 -48 -71 -105
-72 -177 0 -56 4 -73 30 -114 17 -27 50 -63 74 -80 39 -28 50 -30 124 -30 80
0 134 17 188 56 13 10 26 4 72 -34 l56 -45 -62 -41 c-79 -51 -106 -61 -192
-72 -197 -26 -353 68 -415 251 -53 157 8 336 145 426 84 55 279 71 377 30z
m930 -343 l4 -361 -35 -6 c-20 -3 -51 -6 -68 -6 l-33 0 -1 93 c0 50 0 113 1
139 2 61 -9 66 -140 63 -58 -1 -138 -3 -177 -4 l-72 -1 -3 -142 -3 -143 -62
-3 c-71 -3 -65 -12 -68 98 -2 55 -6 581 -5 618 0 8 20 12 64 12 l64 0 7 -65
c4 -36 5 -108 3 -161 l-4 -96 29 6 c16 3 100 6 187 6 130 0 159 3 164 15 3 8
6 70 7 137 0 68 5 131 10 140 7 12 25 18 67 20 31 2 58 3 59 3 1 0 3 -163 5
-362z m-4128 295 c4 -39 2 -66 -4 -72 -7 -7 -94 -11 -244 -11 l-233 0 5 -70
c2 -38 6 -72 9 -75 2 -2 97 -6 211 -7 l207 -3 3 -73 3 -72 -220 3 -219 4 5
-69 c3 -37 7 -70 10 -72 2 -3 115 -6 250 -8 136 -3 249 -6 251 -8 2 -2 0 -35
-4 -74 l-7 -70 -56 4 c-31 3 -173 7 -316 9 -143 3 -261 5 -262 5 -6 2 -3 473
4 594 l6 127 297 0 297 0 7 -62z m1513 36 c46 -20 110 -80 133 -125 58 -113
20 -222 -110 -320 l-35 -27 102 -103 c68 -69 98 -106 90 -111 -7 -4 -49 -8
-93 -8 -78 0 -82 1 -99 28 -45 69 -142 181 -165 189 -14 5 -59 10 -101 12
l-76 2 -6 -53 c-4 -29 -7 -81 -7 -114 0 -61 0 -62 -31 -68 -69 -13 -86 -9 -93
26 -8 46 -20 663 -13 682 5 14 33 15 238 10 165 -5 242 -10 266 -20z m3197
-111 c32 -76 110 -238 172 -360 l114 -223 -77 0 -78 0 -35 61 c-19 34 -42 65
-51 70 -10 5 -41 4 -75 -1 -56 -9 -164 -14 -164 -7 0 2 11 27 26 56 22 48 28
53 51 48 15 -3 34 0 44 6 13 8 25 8 43 -1 23 -10 26 -9 26 6 0 9 -18 54 -39
99 -22 45 -45 99 -50 120 -20 70 -25 66 -73 -50 -25 -62 -57 -139 -70 -172
-14 -33 -38 -93 -53 -133 -41 -105 -40 -104 -128 -110 -43 -2 -77 -2 -77 1 0
3 15 38 34 79 70 149 120 268 190 448 l72 185 54 6 c30 3 62 6 70 7 10 1 33
-41 74 -135z"/>
<path d="M3588 649 c-51 -15 -111 -70 -138 -126 -31 -66 -25 -174 13 -232 60
-90 218 -122 332 -67 55 27 106 80 125 130 14 39 12 131 -4 169 -43 100 -202
161 -328 126z"/>
<path d="M204 411 l1 -230 120 4 c226 7 312 69 314 225 1 73 -26 131 -79 169
-58 42 -87 48 -231 55 l-126 6 1 -229z"/>
<path d="M2665 546 c-4 -53 -5 -102 -1 -111 4 -12 26 -15 103 -17 188 -4 230
4 252 45 21 42 18 96 -8 125 -30 35 -87 49 -218 51 l-121 2 -7 -95z"/>
</g>
</svg>
